<mxfile>
  <diagram name="ER Diagram">
    <mxGraphModel dx="1000" dy="1000" grid="1" gridSize="10" guides="1" tooltips="1" connect="1" arrows="1" fold="1" page="1" pageScale="1" pageWidth="827" pageHeight="1169" math="0" shadow="0">
      <root>
        <mxCell id="0" />
        <mxCell id="1" parent="0" />
        <!-- User Entity -->
        <mxCell id="user" value="User" style="shape=rectangle;whiteSpace=wrap;html=1;" vertex="1" parent="1">
          <mxGeometry x="100" y="50" width="150" height="100" as="geometry" />
        </mxCell>
        <mxCell id="user-attributes" value="userID (PK), name, role, contact_info, password_hash" style="shape=ellipse;whiteSpace=wrap;html=1;" vertex="1" parent="1">
          <mxGeometry x="100" y="160" width="150" height="60" as="geometry" />
        </mxCell>
        <mxCell edge="1" source="user" target="user-attributes" parent="1">
          <mxGeometry relative="1" as="geometry" />
        </mxCell>
        <!-- Lab Entity -->
        <mxCell id="lab" value="Lab" style="shape=rectangle;whiteSpace=wrap;html=1;" vertex="1" parent="1">
          <mxGeometry x="300" y="50" width="150" height="100" as="geometry" />
        </mxCell>
        <mxCell id="lab-attributes" value="labID (PK), size, location, info, isAvailable" style="shape=ellipse;whiteSpace=wrap;html=1;" vertex="1" parent="1">
          <mxGeometry x="300" y="160" width="150" height="60" as="geometry" />
        </mxCell>
        <mxCell edge="1" source="lab" target="lab-attributes" parent="1">
          <mxGeometry relative="1" as="geometry" />
        </mxCell>
        <!-- Equipment Entity -->
        <mxCell id="equipment" value="Equipment" style="shape=rectangle;whiteSpace=wrap;html=1;" vertex="1" parent="1">
          <mxGeometry x="500" y="50" width="150" height="100" as="geometry" />
        </mxCell>
        <mxCell id="equipment-attributes" value="equipID (PK), equipType, status, last_checked" style="shape=ellipse;whiteSpace=wrap;html=1;" vertex="1" parent="1">
          <mxGeometry x="500" y="160" width="150" height="60" as="geometry" />
        </mxCell>
        <mxCell edge="1" source="equipment" target="equipment-attributes" parent="1">
          <mxGeometry relative="1" as="geometry" />
        </mxCell>
        <!-- LabBooking Entity -->
        <mxCell id="lab-booking" value="LabBooking" style="shape=rectangle;whiteSpace=wrap;html=1;" vertex="1" parent="1">
          <mxGeometry x="700" y="50" width="150" height="100" as="geometry" />
        </mxCell>
        <mxCell id="lab-booking-attributes" value="bookingID (PK), start_time, end_time, status" style="shape=ellipse;whiteSpace=wrap;html=1;" vertex="1" parent="1">
          <mxGeometry x="700" y="160" width="150" height="60" as="geometry" />
        </mxCell>
        <mxCell edge="1" source="lab-booking" target="lab-booking-attributes" parent="1">
          <mxGeometry relative="1" as="geometry" />
        </mxCell>
        <!-- Relationships -->
        <mxCell id="books" value="books" style="shape=rhombus;whiteSpace=wrap;html=1;" vertex="1" parent="1">
          <mxGeometry x="100" y="300" width="100" height="60" as="geometry" />
        </mxCell>
        <mxCell edge="1" source="user" target="books" parent="1">
          <mxGeometry relative="1" as="geometry" />
        </mxCell>
        <mxCell edge="1" source="books" target="lab-booking" parent="1">
          <mxGeometry relative="1" as="geometry" />
        </mxCell>
      </root>
    </mxGraphModel>
  </diagram>
</mxfile>
